<?xml version="1.0" standalone="no"?>
<!DOCTYPE svg PUBLIC "-//W3C//DTD SVG 20010904//EN"
 "http://www.w3.org/TR/2001/REC-SVG-20010904/DTD/svg10.dtd">
<svg version="1.0" xmlns="http://www.w3.org/2000/svg"
 width="640.000000pt" height="640.000000pt" viewBox="0 0 640.000000 640.000000"
 preserveAspectRatio="xMidYMid meet">
<metadata>
Created by potrace 1.14, written by Peter Selinger 2001-2017
</metadata>
<g transform="translate(0.000000,640.000000) scale(0.100000,-0.100000)"
fill="#000000" stroke="none">
<path d="M725 5441 c-2 -2 -41 -4 -87 -4 -45 0 -96 -4 -113 -9 -16 -4 -43 -11
-60 -13 -16 -3 -68 -24 -114 -46 -64 -32 -101 -59 -160 -118 -42 -42 -85 -94
-96 -116 -11 -22 -23 -42 -26 -45 -4 -3 -20 -41 -35 -85 l-29 -80 0 -1235 c0
-679 3 -1246 7 -1260 35 -136 87 -229 178 -320 80 -79 151 -123 260 -160 58
-20 130 -28 295 -32 16 0 127 2 165 3 19 1 41 1 48 0 6 -1 18 -1 25 -2 13 -1
111 0 167 2 19 1 41 1 48 0 6 -1 18 -1 25 -2 13 -1 111 0 167 2 19 1 41 1 48
0 6 -1 18 -1 25 -2 13 -1 111 0 167 2 19 1 42 1 50 0 8 0 41 -1 74 0 44 0 57
-3 54 -13 -3 -7 -27 -79 -53 -160 -35 -108 -52 -147 -64 -146 -9 0 -62 -1
-119 -2 -56 -2 -105 -1 -107 2 -3 2 -28 2 -55 -2 -28 -4 -53 -3 -56 2 -3 5 -9
6 -13 4 -4 -3 -37 -5 -72 -6 -35 0 -80 0 -99 -1 -19 -1 -42 -1 -50 0 -47 3
-190 -1 -220 -5 -19 -3 -53 -15 -75 -25 -49 -23 -125 -87 -125 -105 0 -7 -4
-14 -10 -16 -23 -7 -50 -116 -46 -185 8 -155 109 -267 270 -299 11 -2 82 -4
156 -4 256 0 314 -1 322 -6 4 -3 8 -2 8 3 0 4 27 8 60 8 33 0 60 -2 60 -5 0
-6 109 -4 116 2 2 3 24 2 49 -2 24 -4 50 -3 57 1 6 4 15 6 20 3 7 -4 226 -6
501 -3 60 0 110 -1 113 -3 2 -3 27 -2 54 2 28 4 53 3 56 -2 3 -5 9 -6 13 -4 4
3 37 5 72 6 35 0 80 0 99 1 19 1 40 1 45 1 6 -1 100 -1 210 -1 319 -1 378 -2
387 -7 4 -3 8 -2 8 3 0 4 27 8 60 8 33 0 60 -2 60 -5 0 -3 26 -4 57 -3 32 1
58 2 58 3 0 1 14 4 30 6 95 15 201 110 235 209 53 157 -17 323 -165 395 -42
20 -68 24 -159 27 -60 1 -110 4 -112 6 -2 2 -27 1 -54 -3 -28 -4 -53 -3 -56 2
-3 5 -9 6 -13 4 -4 -3 -37 -5 -72 -6 -35 0 -80 0 -99 -1 -19 -1 -42 -1 -50 0
-42 2 -240 1 -251 -1 -12 -3 -122 296 -116 316 3 9 127 15 127 6 0 -3 26 -4
57 -3 32 1 58 2 58 3 0 1 28 2 63 3 34 1 62 0 62 -3 0 -3 28 -4 62 -2 35 1 88
2 118 1 30 0 62 0 70 0 8 1 31 1 50 0 19 0 42 0 50 0 8 0 40 0 70 0 30 -1 64
0 75 1 11 1 25 1 30 1 56 0 93 0 110 0 11 0 58 0 105 0 178 0 239 13 364 78
84 43 198 152 243 231 17 30 31 57 31 60 -1 3 5 16 12 30 8 14 15 30 17 35 23
86 30 137 31 225 1 58 2 105 2 105 1 0 2 26 3 58 1 31 0 57 -3 57 -3 0 -4 30
-2 67 4 96 2 164 -4 174 -3 5 0 9 6 9 6 0 9 4 6 9 -5 7 -7 82 -5 131 0 8 0 40
0 70 0 30 0 62 0 70 0 8 0 31 0 50 -1 19 -1 42 0 50 0 8 0 42 0 75 -1 85 -1
131 0 190 0 6 0 66 -1 135 0 69 0 127 0 130 4 19 4 120 0 120 -3 0 -4 30 -2
67 4 96 2 164 -4 174 -3 5 0 9 6 9 6 0 9 4 6 9 -5 7 -7 82 -5 131 1 20 0 128
-2 165 0 17 -1 37 0 45 3 57 -5 220 -13 255 -16 72 -66 185 -103 234 -39 53
-132 140 -187 175 -31 20 -58 36 -61 36 -2 0 -16 5 -32 12 -15 6 -31 12 -35
13 -5 2 -9 3 -10 5 -2 1 -10 3 -18 5 -8 2 -28 6 -45 10 -38 9 -230 17 -325 14
-8 0 -31 0 -50 1 -19 0 -63 -1 -98 -2 -34 -2 -62 -1 -62 2 0 4 -101 4 -120 0
-3 0 -61 0 -130 0 -69 1 -132 1 -140 1 -8 0 -33 0 -55 0 -22 0 -49 0 -60 -1
-100 -4 -135 -4 -135 0 0 6 -109 4 -115 -1 -2 -2 -58 -2 -124 1 -67 3 -121 3
-121 0 0 -3 -27 -5 -60 -5 -33 0 -60 2 -60 5 0 6 -109 4 -116 -2 -2 -3 -24 -2
-49 2 -24 4 -50 3 -57 -1 -6 -4 -15 -6 -20 -3 -7 4 -226 6 -501 3 -60 0 -110
1 -113 3 -2 3 -27 2 -54 -2 -28 -4 -53 -3 -56 2 -3 5 -9 6 -13 4 -4 -3 -37 -5
-72 -6 -35 0 -80 0 -99 -1 -19 -1 -39 -1 -45 -1 -71 4 -398 6 -400 3z m45
-641 c14 4 37 3 52 -1 14 -4 28 -5 31 -3 2 2 73 4 158 3 85 0 163 0 174 0 11
0 85 0 165 0 80 0 150 0 155 0 85 2 228 2 231 -1 2 -3 27 -2 54 2 28 4 53 3
56 -2 3 -5 9 -6 13 -4 7 5 99 7 141 5 8 -1 31 -1 50 0 19 1 42 1 50 0 13 -1
311 -1 365 0 11 0 67 0 125 0 58 0 112 0 120 0 8 0 33 0 55 0 22 0 49 0 60 1
100 4 135 4 135 0 0 -4 101 -4 120 0 3 0 61 0 130 0 69 -1 132 -1 140 -1 8 0
33 0 55 0 22 0 49 0 60 1 100 4 135 4 135 0 0 -4 107 -4 120 1 3 1 8 1 12 0 4
0 29 -1 57 -2 l50 -2 1 -66 c0 -36 1 -73 1 -81 0 -8 0 -33 0 -55 -1 -64 -1
-77 0 -135 0 -30 0 -62 0 -70 0 -13 0 -41 0 -105 0 -5 0 -19 -1 -30 -1 -11 -1
-47 -1 -80 1 -81 1 -127 0 -190 0 -5 0 -66 1 -135 0 -69 0 -127 0 -130 -4 -19
-4 -120 0 -120 3 0 4 -28 3 -62 -1 -35 -2 -63 -3 -63 -1 0 -2 -26 -3 -58 -1
-31 0 -57 3 -57 3 0 4 -28 3 -62 -1 -35 -2 -63 -3 -63 -1 0 -2 -26 -3 -58 -1
-31 0 -57 3 -57 3 0 4 -28 3 -62 -1 -35 -2 -63 -3 -63 -1 0 -2 -26 -3 -58 -1
-31 0 -57 3 -57 3 0 4 -28 3 -62 -1 -57 -2 -90 -3 -208 -1 -19 -5 -39 -9 -43
-5 -5 -53 -8 -107 -7 -55 1 -106 1 -114 1 -8 0 -80 0 -160 0 -80 0 -152 0
-160 0 -8 0 -80 0 -160 0 -80 0 -152 0 -160 0 -8 0 -80 0 -160 0 -80 0 -152 0
-160 0 -60 -2 -195 1 -202 5 -4 3 -8 2 -8 -3 0 -4 -27 -8 -60 -8 -33 0 -60 2
-60 5 0 3 -26 4 -57 3 -32 -1 -58 -2 -58 -3 0 -1 -28 -2 -63 -3 -34 -1 -62 0
-62 3 0 3 -26 4 -57 3 -32 -1 -58 -2 -58 -3 0 -1 -28 -2 -63 -3 -34 -1 -62 0
-62 3 0 3 -26 4 -57 3 -32 -1 -58 -2 -58 -3 0 -1 -28 -2 -63 -3 -34 -1 -62 0
-62 3 0 3 -26 4 -57 3 -32 -1 -58 -2 -58 -3 0 -1 -28 -2 -63 -3 -34 -1 -62 0
-62 3 0 6 -109 4 -116 -2 -2 -3 -24 -2 -49 2 -24 4 -50 3 -57 -1 -6 -4 -15 -6
-19 -4 -5 4 -67 6 -119 4 -8 0 -33 0 -55 0 -22 0 -47 0 -55 0 -13 0 -99 0
-155 1 -11 0 -37 0 -57 0 -32 0 -38 3 -38 23 0 12 0 31 0 42 -1 31 -1 148 -1
163 1 6 2 18 2 25 1 6 1 41 0 77 0 36 -1 74 0 85 0 30 1 288 0 305 -1 8 0 40
0 70 1 30 1 61 0 68 -1 6 -1 18 -2 25 -1 6 -1 28 0 47 2 56 3 154 2 168 -1 6
-1 18 -2 25 -1 6 -1 28 0 47 2 56 3 154 2 168 -1 6 -1 18 -2 25 -1 6 -1 28 0
47 2 56 3 154 2 168 -1 6 -1 18 -2 25 -1 6 -1 28 0 47 2 48 3 152 2 168 0 6 0
51 0 100 0 91 -2 211 -3 221 0 3 0 25 1 49 1 49 23 64 76 52 16 -3 41 -3 55 0z"/>
<path d="M5287 5444 c-3 -3 -29 -7 -59 -9 -138 -8 -294 -110 -364 -238 -31
-58 -61 -152 -59 -185 1 -12 -1 -22 -4 -22 -3 0 -6 -25 -6 -55 0 -30 2 -55 5
-55 4 0 4 -35 0 -135 -1 -11 -1 -38 -1 -60 0 -22 0 -47 0 -55 0 -8 0 -71 1
-140 0 -69 0 -127 0 -130 -4 -19 -4 -120 0 -120 4 0 4 -35 0 -135 -1 -11 -1
-38 -1 -60 0 -22 0 -47 0 -55 0 -8 0 -71 1 -140 0 -69 0 -127 0 -130 -4 -19
-4 -120 0 -120 4 0 4 -35 0 -135 -1 -11 -1 -38 -1 -60 0 -22 0 -47 0 -55 0 -8
0 -71 1 -140 0 -69 0 -127 0 -130 -4 -19 -4 -120 0 -120 4 0 4 -35 0 -135 -1
-11 -1 -38 -1 -60 0 -22 0 -47 0 -55 0 -8 0 -71 1 -140 0 -69 0 -127 0 -130
-4 -19 -4 -120 0 -120 4 0 4 -35 0 -135 -1 -11 -1 -38 -1 -60 0 -22 0 -47 0
-55 0 -8 0 -71 1 -140 0 -69 0 -127 0 -130 -4 -21 -4 -120 1 -120 3 0 3 -22
-1 -50 -4 -27 -3 -50 0 -50 4 0 4 -20 0 -45 -4 -25 -5 -47 -3 -49 3 -2 6 -35
7 -73 6 -158 95 -304 236 -387 102 -60 161 -69 423 -66 60 1 110 0 113 -2 2
-3 26 -2 54 2 28 4 52 5 54 2 7 -7 266 -7 266 0 0 4 6 5 13 3 6 -3 37 2 67 10
30 8 63 17 72 19 29 8 121 71 162 112 50 50 97 133 118 209 16 56 17 193 18
1892 l0 1833 -23 64 c-44 120 -105 199 -202 261 -104 67 -154 75 -465 75 -322
0 -403 1 -410 5 -4 3 -10 2 -13 -1z m394 -643 c18 11 144 -11 168 -29 44 -33
64 -68 66 -119 6 -112 -61 -172 -195 -173 -148 -2 -240 0 -290 4 -14 2 -33 4
-43 4 -10 1 -36 19 -57 41 -41 41 -59 105 -45 153 11 36 54 88 83 100 36 16
152 24 235 18 38 -3 73 -3 78 1z m-65 -640 c38 -1 89 -1 114 -1 25 -1 54 -3
65 -5 11 -2 24 -4 28 -4 5 -1 26 -18 47 -40 41 -41 59 -105 45 -153 -21 -69
-91 -118 -169 -118 -22 0 -48 0 -56 -1 -71 -1 -218 1 -260 5 -14 2 -33 4 -43
4 -10 1 -36 19 -57 41 -41 41 -59 105 -45 153 11 36 54 88 83 100 24 11 158
27 173 21 3 -1 36 -2 75 -2z m79 -1776 c132 -48 213 -153 221 -283 8 -132 -57
-246 -176 -308 -48 -26 -65 -29 -140 -28 -69 0 -94 5 -135 25 -63 31 -125 93
-155 155 -31 66 -34 198 -5 262 11 23 23 42 27 42 5 0 8 6 8 13 0 29 121 115
174 124 11 2 22 5 24 8 7 6 134 -1 157 -10z"/>
</g>
</svg>
